HIERARCHY
ROOT Hips
{
	OFFSET	0.00	0.00	0.00
	CHANNELS 6 Xposition Yposition Zposition Zrotation Xrotation Yrotation
	JOINT Chest
	{
		OFFSET	 0.000000	 4.570000	 0.000000
		CHANNELS 3 Zrotation Xrotation Yrotation
		JOINT Neck
		{
			OFFSET	 0.000000	 17.620001	 0.000000
			CHANNELS 3 Zrotation Xrotation Yrotation
			JOINT Head
			{
				OFFSET	 0.000000	 5.190000	 0.000000
				CHANNELS 3 Zrotation Xrotation Yrotation
				End Site 
				{
					OFFSET	 0.000000	 4.140008	 0.000000
				}
			}
		}
		JOINT LeftCollar
		{
			OFFSET	 1.060000	 15.330000	 01.760000
			CHANNELS 3 Zrotation Xrotation Yrotation
			JOINT LeftShoulder
			{
				OFFSET	 5.00000	 0.000000	 0.000000
				CHANNELS 3 Zrotation Xrotation Yrotation
				JOINT LeftElbow
				{
					OFFSET	 0.000000	-11.90000	 0.000000
					CHANNELS 3 Zrotation Xrotation Yrotation
					JOINT LeftWrist
					{
						OFFSET	 0.000000	-9.520000	 0.000000
						CHANNELS 3 Zrotation Xrotation Yrotation
						End Site 
						{
							OFFSET	 0.000000	-7.0	 0.000000
						}
					}
				}
			}
		}
		JOINT RightCollar
		{
			OFFSET	-1.060000	 15.330000	 01.760000
			CHANNELS 3 Zrotation Xrotation Yrotation
			JOINT RightShoulder
			{
				OFFSET	-5.000000	 0.000000	 0.000000
				CHANNELS 3 Zrotation Xrotation Yrotation
				JOINT RightElbow
				{
					OFFSET	 0.000000	-11.900000	 0.000000
					CHANNELS 3 Zrotation Xrotation Yrotation
					JOINT RightWrist
					{
						OFFSET	 0.000000	-9.520000	 0.000000
						CHANNELS 3 Zrotation Xrotation Yrotation
						End Site 
						{
							OFFSET	 0.000000	-7.0	 0.000000
						}
					}
				}
			}
		}
	}
	JOINT LeftHip
	{
		OFFSET	 3.430000	 0.000000	 0.000000
		CHANNELS 3 Zrotation Xrotation Yrotation
		JOINT LeftKnee
		{
			OFFSET	 0.000000	-19.0	 0.000000
			CHANNELS 3 Zrotation Xrotation Yrotation
			JOINT LeftAnkle
			{
				OFFSET	 0.000000	-15.00000	 0.000000
				CHANNELS 3 Zrotation Xrotation Yrotation
				End Site 
				{
					OFFSET	 0.000000	-3.0	 0.000000
				}
			}
		}
	}
	JOINT RightHip
	{
		OFFSET	-3.430000	 0.000000	 0.000000
		CHANNELS 3 Zrotation Xrotation Yrotation
		JOINT RightKnee
		{
			OFFSET	 0.000000	-19.0	 0.000000
			CHANNELS 3 Zrotation Xrotation Yrotation
			JOINT RightAnkle
			{
				OFFSET	 0.000000	-15.00000	 0.000000
				CHANNELS 3 Zrotation Xrotation Yrotation
				End Site 
				{
					OFFSET	 0.000000	-3.0	 0.000000
				}
			}
		}
	}
}
MOTION
Frames: 8
Frame Time: 0.033333333
0.078297	36.463100	10.916282	-9.254090	-14.134013	2.382968	8.859382	15.168511	5.590330	-359.932135	-327.636406	-0.122439	1.806041	-26.531172	5.103047	-9.286454	24.193031	9.924288	27.488037	3.077110	15.580749	131.323798	-128.337871	59.238461	-29.223466	4.684267	56.764731	-347.322049	-337.342624	-26.923966	-49.875672	-12.179527	54.371579	-73.481734	-68.017884	17.920015	225.962295	182.511051	100.713356	20.013606	5.990052	22.150769	-120.435233	110.610252	126.961697	336.043440	-359.252969	-12.366183	8.715389	11.338292	0.087953	-9.930384	64.215012	9.467455	-320.803212	353.598665	-0.959313	
0.246291	35.780497	11.333314	-9.231462	-14.801516	2.820612	8.913776	15.986088	5.414380	-359.714607	-328.236998	-0.190876	1.592896	-26.685658	4.646711	-8.805813	24.239834	9.346001	26.587675	3.694931	15.146808	131.970917	-126.709582	60.670171	-28.954906	4.487314	56.754342	-347.727353	-337.373169	-27.090563	-50.144116	-12.263907	54.224180	-74.929202	-68.354202	17.329180	226.159073	183.444437	100.954763	19.215640	4.069555	22.610092	-104.645892	110.745388	111.115324	335.668107	-359.309413	-9.988878	8.327248	10.082258	0.279114	-11.006427	68.873911	11.098604	-320.527327	354.281493	-0.957738	
0.501217	34.659386	11.937983	-9.497882	-15.928346	3.135605	9.159048	17.436626	5.084565	-359.518827	-329.354281	-0.240812	1.477465	-26.731087	4.591358	-7.562441	24.285196	8.913404	24.461571	4.523440	14.019236	133.422305	-123.996330	62.949761	-27.879044	4.040428	56.683725	-348.591918	-337.422810	-27.345729	-50.401867	-12.176417	54.104328	-78.762413	-69.008657	15.345088	226.614086	185.075951	101.349520	18.328172	1.991097	23.010712	-85.282286	112.857282	91.178365	334.580523	-359.260372	-6.365375	7.964322	8.540315	0.500203	-13.994800	75.374270	14.807812	-321.457189	355.643596	-1.550868	
0.668935	33.660999	12.469454	-10.035277	-16.926890	2.770238	9.443615	18.687491	4.779631	-359.680702	-330.174696	-0.180971	1.666678	-26.729647	5.138410	-6.537245	24.280692	9.170657	22.633931	5.348237	13.031560	134.616359	-121.677645	64.623396	-26.793506	3.406409	56.495556	-349.805998	-337.426635	-27.301450	-50.371209	-12.015394	54.140094	-82.646161	-70.045459	12.381509	226.296059	184.968785	101.424167	18.255343	1.110868	23.263671	-73.494486	115.160415	78.571461	333.087143	-359.618520	-3.935934	8.177031	7.729569	0.646532	-21.297152	80.037561	22.492338	-321.506612	357.003705	-2.208282	
0.850387	32.485226	13.021586	-10.306800	-17.014721	2.267695	9.147727	18.989551	4.739459	-359.791215	-330.887276	-0.141455	1.847138	-26.789406	5.662439	-5.548983	24.260754	9.620960	20.998533	6.490936	12.160297	135.321179	-119.108483	65.480325	-26.058390	2.810813	56.361261	-351.186379	-337.459475	-27.410353	-50.416135	-11.686948	54.158156	-89.235845	-71.390296	7.093272	225.702570	185.460012	101.726751	17.866629	-0.443588	23.588742	-63.145842	117.995722	67.117105	331.105295	359.316489	-1.541238	8.231752	5.937141	0.942091	-45.632158	84.372621	47.181702	-320.159590	358.351247	-2.882657	
1.122351	30.727704	13.818313	-10.746874	-16.792388	1.286451	8.533908	19.061461	4.784920	-359.990328	-331.675343	-0.079823	2.036312	-27.056856	6.471152	-4.965109	24.192704	10.627723	19.631973	8.408704	11.493449	135.062288	-115.187517	64.726156	-25.448504	2.087583	56.227065	-352.918870	-337.491194	-27.474661	-50.929287	-10.645872	54.024029	257.085772	287.816678	-4.616909	225.312266	187.628119	102.455348	17.431318	-2.197660	23.911892	-52.225647	122.364147	54.555192	-30.633121	-2.353551	1.641063	8.741077	3.295867	1.462545	-123.003179	83.876333	125.001133	-317.090021	-359.831513	-4.226055	
1.331954	29.288655	14.490289	-11.689662	-17.388194	0.154427	8.598556	19.997444	4.577323	-0.365010	27.716560	0.022376	2.336792	-27.328870	7.447973	-4.692034	24.133493	11.410242	18.715751	10.036205	11.056440	135.147816	-111.782367	64.417753	-24.443293	1.287648	56.006003	-354.387005	-337.473982	-27.255396	-51.479397	-9.478431	53.880752	246.320957	287.954648	-15.553174	224.673712	186.873520	102.343661	17.687155	-2.269727	24.037583	-46.109079	126.101749	47.186740	-30.069798	-2.979833	4.623279	9.912674	2.392264	1.841935	-323.932176	-259.413993	-33.695559	-315.047685	-358.290294	-5.693993	
1.581505	27.676349	15.156966	347.490564	342.104276	-0.500414	8.479825	21.031482	4.369724	-0.358348	26.820381	0.019490	2.551337	-27.671660	8.012944	-3.771059	24.163552	11.138980	17.489088	11.597868	10.388233	137.327342	-108.087952	67.024795	-22.838938	0.599320	55.894524	-355.784325	-337.503079	-27.304654	-52.121705	-7.991022	53.718542	236.314594	288.450847	-26.990694	223.018948	184.003652	101.891475	17.469352	-2.769461	24.082773	-41.009240	130.802818	40.630752	-28.402086	-2.738330	8.454504	10.700546	1.436003	2.192413	-333.509822	-254.316267	-23.574553	-313.866308	-356.510156	-7.005382	
